<?xml version="1.0" encoding="UTF-8" standalone="no"?>
<!DOCTYPE svg PUBLIC "-//W3C//DTD SVG 1.1//EN"
 "http://www.w3.org/Graphics/SVG/1.1/DTD/svg11.dtd">
<!-- Generated by graphviz version 2.40.1 (20161225.0304)
 -->
<!-- Title: dependencies Pages: 1 -->
<svg width="604pt" height="284pt"
 viewBox="0.00 0.00 604.00 284.00" xmlns="http://www.w3.org/2000/svg" xmlns:xlink="http://www.w3.org/1999/xlink">
<g id="graph0" class="graph" transform="scale(1 1) rotate(0) translate(4 280)">
<title>dependencies</title>
<polygon fill="#ffffff" stroke="transparent" points="-4,4 -4,-280 600,-280 600,4 -4,4"/>
<text text-anchor="start" x="277.0091" y="-42.4" font-family="sans-serif" font-weight="bold" font-size="14.00" fill="#000000">Legend</text>
<polygon fill="#ffffb3" stroke="transparent" points="64,-10 64,-30 84,-30 84,-10 64,-10"/>
<text text-anchor="start" x="87.629" y="-15.4" font-family="sans-serif" font-size="14.00" fill="#000000"> &#160;Declarations</text>
<polygon fill="#8dd3c7" stroke="transparent" points="177,-10 177,-30 197,-30 197,-10 177,-10"/>
<text text-anchor="start" x="200.7251" y="-15.4" font-family="sans-serif" font-size="14.00" fill="#000000"> &#160;Module</text>
<polygon fill="#80b1d3" stroke="transparent" points="263,-10 263,-30 283,-30 283,-10 263,-10"/>
<text text-anchor="start" x="286.7812" y="-15.4" font-family="sans-serif" font-size="14.00" fill="#000000"> &#160;Bootstrap</text>
<polygon fill="#fdb462" stroke="transparent" points="360,-10 360,-30 380,-30 380,-10 360,-10"/>
<text text-anchor="start" x="383.6732" y="-15.4" font-family="sans-serif" font-size="14.00" fill="#000000"> &#160;Providers</text>
<polygon fill="#fb8072" stroke="transparent" points="456,-10 456,-30 476,-30 476,-10 456,-10"/>
<text text-anchor="start" x="479.7258" y="-15.4" font-family="sans-serif" font-size="14.00" fill="#000000"> &#160;Exports</text>
<g id="clust1" class="cluster">
<title>cluster_CoreModule</title>
<polygon fill="none" stroke="#000000" stroke-dasharray="1,5" points="8,-70 8,-268 588,-268 588,-70 8,-70"/>
</g>
<g id="clust2" class="cluster">
<title>cluster_CoreModule_declarations</title>
<polygon fill="none" stroke="#000000" points="418,-78 418,-130 580,-130 580,-78 418,-78"/>
</g>
<g id="clust4" class="cluster">
<title>cluster_CoreModule_imports</title>
<polygon fill="none" stroke="#000000" points="224,-78 224,-130 410,-130 410,-78 224,-78"/>
</g>
<g id="clust5" class="cluster">
<title>cluster_CoreModule_exports</title>
<polygon fill="none" stroke="#000000" points="224,-208 224,-260 388,-260 388,-208 224,-208"/>
</g>
<g id="clust7" class="cluster">
<title>cluster_CoreModule_providers</title>
<polygon fill="none" stroke="#000000" points="16,-78 16,-130 216,-130 216,-78 16,-78"/>
</g>
<!-- HeaderNavComponent -->
<g id="node1" class="node">
<title>HeaderNavComponent</title>
<polygon fill="#ffffb3" stroke="#000000" points="571.5646,-122 426.4354,-122 426.4354,-86 571.5646,-86 571.5646,-122"/>
<text text-anchor="middle" x="499" y="-99.8" font-family="Times,serif" font-size="14.00" fill="#000000">HeaderNavComponent</text>
</g>
<!-- CoreModule -->
<g id="node2" class="node">
<title>CoreModule</title>
<polygon fill="#8dd3c7" stroke="#000000" points="349.2619,-187 346.2619,-191 325.2619,-191 322.2619,-187 262.7381,-187 262.7381,-151 349.2619,-151 349.2619,-187"/>
<text text-anchor="middle" x="306" y="-164.8" font-family="Times,serif" font-size="14.00" fill="#000000">CoreModule</text>
</g>
<!-- HeaderNavComponent&#45;&gt;CoreModule -->
<g id="edge1" class="edge">
<title>HeaderNavComponent&#45;&gt;CoreModule</title>
<path fill="none" stroke="#000000" d="M499,-122.1061C499,-141.3391 499,-169 499,-169 499,-169 359.313,-169 359.313,-169"/>
<polygon fill="#000000" stroke="#000000" points="359.313,-165.5001 349.313,-169 359.3129,-172.5001 359.313,-165.5001"/>
</g>
<!-- HeaderNavComponent  -->
<g id="node5" class="node">
<title>HeaderNavComponent </title>
<polygon fill="#fb8072" stroke="#000000" points="380.0652,-252 231.9348,-252 231.9348,-216 380.0652,-216 380.0652,-252"/>
<text text-anchor="middle" x="306" y="-229.8" font-family="Times,serif" font-size="14.00" fill="#000000">HeaderNavComponent </text>
</g>
<!-- CoreModule&#45;&gt;HeaderNavComponent  -->
<g id="edge4" class="edge">
<title>CoreModule&#45;&gt;HeaderNavComponent </title>
<path fill="none" stroke="#000000" stroke-dasharray="5,2" d="M306,-187.1061C306,-187.1061 306,-205.991 306,-205.991"/>
<polygon fill="#000000" stroke="#000000" points="302.5001,-205.9909 306,-215.991 309.5001,-205.991 302.5001,-205.9909"/>
</g>
<!-- SharedModule -->
<g id="node3" class="node">
<title>SharedModule</title>
<polygon fill="#8dd3c7" stroke="#000000" points="402.4231,-122 399.4231,-126 378.4231,-126 375.4231,-122 303.5769,-122 303.5769,-86 402.4231,-86 402.4231,-122"/>
<text text-anchor="middle" x="353" y="-99.8" font-family="Times,serif" font-size="14.00" fill="#000000">SharedModule</text>
</g>
<!-- SharedModule&#45;&gt;CoreModule -->
<g id="edge2" class="edge">
<title>SharedModule&#45;&gt;CoreModule</title>
<path fill="none" stroke="#000000" d="M326.5849,-122.1061C326.5849,-122.1061 326.5849,-140.991 326.5849,-140.991"/>
<polygon fill="#000000" stroke="#000000" points="323.0849,-140.9909 326.5849,-150.991 330.0849,-140.991 323.0849,-140.9909"/>
</g>
<!-- { &#160;} -->
<g id="node4" class="node">
<title>{ &#160;}</title>
<polygon fill="#8dd3c7" stroke="#000000" points="286,-122 283,-126 262,-126 259,-122 232,-122 232,-86 286,-86 286,-122"/>
<text text-anchor="middle" x="259" y="-99.8" font-family="Times,serif" font-size="14.00" fill="#000000">{ &#160;}</text>
</g>
<!-- { &#160;}&#45;&gt;CoreModule -->
<g id="edge3" class="edge">
<title>{ &#160;}&#45;&gt;CoreModule</title>
<path fill="none" stroke="#000000" d="M274.3096,-122.1061C274.3096,-122.1061 274.3096,-140.991 274.3096,-140.991"/>
<polygon fill="#000000" stroke="#000000" points="270.8097,-140.9909 274.3096,-150.991 277.8097,-140.991 270.8097,-140.9909"/>
</g>
<!-- CanDeactivateGuard -->
<g id="node6" class="node">
<title>CanDeactivateGuard</title>
<ellipse fill="#fdb462" stroke="#000000" cx="116" cy="-104" rx="92.0123" ry="18"/>
<text text-anchor="middle" x="116" y="-99.8" font-family="Times,serif" font-size="14.00" fill="#000000">CanDeactivateGuard</text>
</g>
<!-- CanDeactivateGuard&#45;&gt;CoreModule -->
<g id="edge5" class="edge">
<title>CanDeactivateGuard&#45;&gt;CoreModule</title>
<path fill="none" stroke="#000000" d="M116,-122.1061C116,-141.3391 116,-169 116,-169 116,-169 252.4102,-169 252.4102,-169"/>
<polygon fill="#000000" stroke="#000000" points="252.4102,-172.5001 262.4102,-169 252.4101,-165.5001 252.4102,-172.5001"/>
</g>
</g>
</svg>
