<?xml version="1.0" encoding="UTF-8" standalone="no"?>
<!DOCTYPE svg PUBLIC "-//W3C//DTD SVG 1.1//EN"
 "http://www.w3.org/Graphics/SVG/1.1/DTD/svg11.dtd">
<!-- Generated by graphviz version 2.40.1 (20161225.0304)
 -->
<!-- Title: dependencies Pages: 1 -->
<svg width="504pt" height="284pt"
 viewBox="0.00 0.00 504.00 284.00" xmlns="http://www.w3.org/2000/svg" xmlns:xlink="http://www.w3.org/1999/xlink">
<g id="graph0" class="graph" transform="scale(1 1) rotate(0) translate(4 280)">
<title>dependencies</title>
<polygon fill="#ffffff" stroke="transparent" points="-4,4 -4,-280 500,-280 500,4 -4,4"/>
<text text-anchor="start" x="227.0091" y="-42.4" font-family="sans-serif" font-weight="bold" font-size="14.00" fill="#000000">Legend</text>
<polygon fill="#ffffb3" stroke="transparent" points="14,-10 14,-30 34,-30 34,-10 14,-10"/>
<text text-anchor="start" x="37.629" y="-15.4" font-family="sans-serif" font-size="14.00" fill="#000000"> &#160;Declarations</text>
<polygon fill="#8dd3c7" stroke="transparent" points="127,-10 127,-30 147,-30 147,-10 127,-10"/>
<text text-anchor="start" x="150.7251" y="-15.4" font-family="sans-serif" font-size="14.00" fill="#000000"> &#160;Module</text>
<polygon fill="#80b1d3" stroke="transparent" points="213,-10 213,-30 233,-30 233,-10 213,-10"/>
<text text-anchor="start" x="236.7812" y="-15.4" font-family="sans-serif" font-size="14.00" fill="#000000"> &#160;Bootstrap</text>
<polygon fill="#fdb462" stroke="transparent" points="310,-10 310,-30 330,-30 330,-10 310,-10"/>
<text text-anchor="start" x="333.6732" y="-15.4" font-family="sans-serif" font-size="14.00" fill="#000000"> &#160;Providers</text>
<polygon fill="#fb8072" stroke="transparent" points="406,-10 406,-30 426,-30 426,-10 406,-10"/>
<text text-anchor="start" x="429.7258" y="-15.4" font-family="sans-serif" font-size="14.00" fill="#000000"> &#160;Exports</text>
<g id="clust1" class="cluster">
<title>cluster_SharedModule</title>
<polygon fill="none" stroke="#000000" stroke-dasharray="1,5" points="40,-70 40,-268 456,-268 456,-70 40,-70"/>
</g>
<g id="clust2" class="cluster">
<title>cluster_SharedModule_declarations</title>
<polygon fill="none" stroke="#000000" points="183,-78 183,-130 448,-130 448,-78 183,-78"/>
</g>
<g id="clust5" class="cluster">
<title>cluster_SharedModule_imports</title>
<polygon fill="none" stroke="#000000" points="53,-78 53,-130 175,-130 175,-78 53,-78"/>
</g>
<g id="clust6" class="cluster">
<title>cluster_SharedModule_exports</title>
<polygon fill="none" stroke="#000000" points="48,-208 48,-260 448,-260 448,-208 48,-208"/>
</g>
<!-- FileUploadComponent -->
<g id="node1" class="node">
<title>FileUploadComponent</title>
<polygon fill="#ffffb3" stroke="#000000" points="440.323,-122 295.677,-122 295.677,-86 440.323,-86 440.323,-122"/>
<text text-anchor="middle" x="368" y="-99.8" font-family="Times,serif" font-size="14.00" fill="#000000">FileUploadComponent</text>
</g>
<!-- SharedModule -->
<g id="node3" class="node">
<title>SharedModule</title>
<polygon fill="#8dd3c7" stroke="#000000" points="285.4231,-187 282.4231,-191 261.4231,-191 258.4231,-187 186.5769,-187 186.5769,-151 285.4231,-151 285.4231,-187"/>
<text text-anchor="middle" x="236" y="-164.8" font-family="Times,serif" font-size="14.00" fill="#000000">SharedModule</text>
</g>
<!-- FileUploadComponent&#45;&gt;SharedModule -->
<g id="edge1" class="edge">
<title>FileUploadComponent&#45;&gt;SharedModule</title>
<path fill="none" stroke="#000000" d="M295.6148,-104C287.0606,-104 281.2977,-104 281.2977,-104 281.2977,-104 281.2977,-140.8939 281.2977,-140.8939"/>
<polygon fill="#000000" stroke="#000000" points="277.7978,-140.8938 281.2977,-150.8939 284.7978,-140.8939 277.7978,-140.8938"/>
</g>
<!-- FileSizePipe -->
<g id="node2" class="node">
<title>FileSizePipe</title>
<polygon fill="#ffffb3" stroke="#000000" points="277.2689,-122 190.7311,-122 190.7311,-86 277.2689,-86 277.2689,-122"/>
<text text-anchor="middle" x="234" y="-99.8" font-family="Times,serif" font-size="14.00" fill="#000000">FileSizePipe</text>
</g>
<!-- FileSizePipe&#45;&gt;SharedModule -->
<g id="edge2" class="edge">
<title>FileSizePipe&#45;&gt;SharedModule</title>
<path fill="none" stroke="#000000" d="M234,-122.1061C234,-122.1061 234,-140.991 234,-140.991"/>
<polygon fill="#000000" stroke="#000000" points="230.5001,-140.9909 234,-150.991 237.5001,-140.991 230.5001,-140.9909"/>
</g>
<!-- MaterialModule  -->
<g id="node5" class="node">
<title>MaterialModule </title>
<polygon fill="#fb8072" stroke="#000000" points="440.4716,-252 329.5284,-252 329.5284,-216 440.4716,-216 440.4716,-252"/>
<text text-anchor="middle" x="385" y="-229.8" font-family="Times,serif" font-size="14.00" fill="#000000">MaterialModule </text>
</g>
<!-- SharedModule&#45;&gt;MaterialModule  -->
<g id="edge4" class="edge">
<title>SharedModule&#45;&gt;MaterialModule </title>
<path fill="none" stroke="#000000" stroke-dasharray="5,2" d="M285.6025,-169C328.9359,-169 384.963,-169 384.963,-169 384.963,-169 384.963,-205.8939 384.963,-205.8939"/>
<polygon fill="#000000" stroke="#000000" points="381.4631,-205.8938 384.963,-215.8939 388.4631,-205.8939 381.4631,-205.8938"/>
</g>
<!-- FileUploadComponent  -->
<g id="node6" class="node">
<title>FileUploadComponent </title>
<polygon fill="#fb8072" stroke="#000000" points="311.8227,-252 164.1773,-252 164.1773,-216 311.8227,-216 311.8227,-252"/>
<text text-anchor="middle" x="238" y="-229.8" font-family="Times,serif" font-size="14.00" fill="#000000">FileUploadComponent </text>
</g>
<!-- SharedModule&#45;&gt;FileUploadComponent  -->
<g id="edge5" class="edge">
<title>SharedModule&#45;&gt;FileUploadComponent </title>
<path fill="none" stroke="#000000" stroke-dasharray="5,2" d="M236,-187.1061C236,-187.1061 236,-205.991 236,-205.991"/>
<polygon fill="#000000" stroke="#000000" points="232.5001,-205.9909 236,-215.991 239.5001,-205.991 232.5001,-205.9909"/>
</g>
<!-- FileSizePipe  -->
<g id="node7" class="node">
<title>FileSizePipe </title>
<polygon fill="#fb8072" stroke="#000000" points="146.269,-252 55.731,-252 55.731,-216 146.269,-216 146.269,-252"/>
<text text-anchor="middle" x="101" y="-229.8" font-family="Times,serif" font-size="14.00" fill="#000000">FileSizePipe </text>
</g>
<!-- SharedModule&#45;&gt;FileSizePipe  -->
<g id="edge6" class="edge">
<title>SharedModule&#45;&gt;FileSizePipe </title>
<path fill="none" stroke="#000000" stroke-dasharray="5,2" d="M186.5965,-175C148.875,-175 103.3245,-175 103.3245,-175 103.3245,-175 103.3245,-205.9775 103.3245,-205.9775"/>
<polygon fill="#000000" stroke="#000000" points="99.8246,-205.9774 103.3245,-215.9775 106.8246,-205.9775 99.8246,-205.9774"/>
</g>
<!-- MaterialModule -->
<g id="node4" class="node">
<title>MaterialModule</title>
<polygon fill="#8dd3c7" stroke="#000000" points="167.4706,-122 164.4706,-126 143.4706,-126 140.4706,-122 60.5294,-122 60.5294,-86 167.4706,-86 167.4706,-122"/>
<text text-anchor="middle" x="114" y="-99.8" font-family="Times,serif" font-size="14.00" fill="#000000">MaterialModule</text>
</g>
<!-- MaterialModule&#45;&gt;SharedModule -->
<g id="edge3" class="edge">
<title>MaterialModule&#45;&gt;SharedModule</title>
<path fill="none" stroke="#000000" d="M155.1115,-122.0225C155.1115,-139.3734 155.1115,-163 155.1115,-163 155.1115,-163 176.6167,-163 176.6167,-163"/>
<polygon fill="#000000" stroke="#000000" points="176.6168,-166.5001 186.6167,-163 176.6167,-159.5001 176.6168,-166.5001"/>
</g>
</g>
</svg>
