<?xml version="1.0" encoding="UTF-8" standalone="no"?>
<!DOCTYPE svg PUBLIC "-//W3C//DTD SVG 1.1//EN"
 "http://www.w3.org/Graphics/SVG/1.1/DTD/svg11.dtd">
<!-- Generated by graphviz version 2.40.1 (20161225.0304)
 -->
<!-- Title: dependencies Pages: 1 -->
<svg width="679pt" height="211pt"
 viewBox="0.00 0.00 679.00 211.00" xmlns="http://www.w3.org/2000/svg" xmlns:xlink="http://www.w3.org/1999/xlink">
<g id="graph0" class="graph" transform="scale(1 1) rotate(0) translate(4 207)">
<title>dependencies</title>
<polygon fill="#ffffff" stroke="transparent" points="-4,4 -4,-207 675,-207 675,4 -4,4"/>
<text text-anchor="start" x="314.5091" y="-42.4" font-family="sans-serif" font-weight="bold" font-size="14.00" fill="#000000">Legend</text>
<polygon fill="#ffffb3" stroke="transparent" points="101.5,-10 101.5,-30 121.5,-30 121.5,-10 101.5,-10"/>
<text text-anchor="start" x="125.129" y="-15.4" font-family="sans-serif" font-size="14.00" fill="#000000"> &#160;Declarations</text>
<polygon fill="#8dd3c7" stroke="transparent" points="214.5,-10 214.5,-30 234.5,-30 234.5,-10 214.5,-10"/>
<text text-anchor="start" x="238.2251" y="-15.4" font-family="sans-serif" font-size="14.00" fill="#000000"> &#160;Module</text>
<polygon fill="#80b1d3" stroke="transparent" points="300.5,-10 300.5,-30 320.5,-30 320.5,-10 300.5,-10"/>
<text text-anchor="start" x="324.2812" y="-15.4" font-family="sans-serif" font-size="14.00" fill="#000000"> &#160;Bootstrap</text>
<polygon fill="#fdb462" stroke="transparent" points="397.5,-10 397.5,-30 417.5,-30 417.5,-10 397.5,-10"/>
<text text-anchor="start" x="421.1732" y="-15.4" font-family="sans-serif" font-size="14.00" fill="#000000"> &#160;Providers</text>
<polygon fill="#fb8072" stroke="transparent" points="493.5,-10 493.5,-30 513.5,-30 513.5,-10 493.5,-10"/>
<text text-anchor="start" x="517.2258" y="-15.4" font-family="sans-serif" font-size="14.00" fill="#000000"> &#160;Exports</text>
<g id="clust1" class="cluster">
<title>cluster_HeatmapsModule</title>
<polygon fill="none" stroke="#000000" stroke-dasharray="1,5" points="8,-70 8,-195 663,-195 663,-70 8,-70"/>
</g>
<g id="clust2" class="cluster">
<title>cluster_HeatmapsModule_declarations</title>
<polygon fill="none" stroke="#000000" points="317,-78 317,-130 655,-130 655,-78 317,-78"/>
</g>
<g id="clust5" class="cluster">
<title>cluster_HeatmapsModule_imports</title>
<polygon fill="none" stroke="#000000" points="16,-78 16,-130 309,-130 309,-78 16,-78"/>
</g>
<!-- CollectionComponent -->
<g id="node1" class="node">
<title>CollectionComponent</title>
<polygon fill="#ffffb3" stroke="#000000" points="646.661,-122 507.339,-122 507.339,-86 646.661,-86 646.661,-122"/>
<text text-anchor="middle" x="577" y="-99.8" font-family="Times,serif" font-size="14.00" fill="#000000">CollectionComponent</text>
</g>
<!-- HeatmapsModule -->
<g id="node3" class="node">
<title>HeatmapsModule</title>
<polygon fill="#8dd3c7" stroke="#000000" points="386.527,-187 383.527,-191 362.527,-191 359.527,-187 271.473,-187 271.473,-151 386.527,-151 386.527,-187"/>
<text text-anchor="middle" x="329" y="-164.8" font-family="Times,serif" font-size="14.00" fill="#000000">HeatmapsModule</text>
</g>
<!-- CollectionComponent&#45;&gt;HeatmapsModule -->
<g id="edge1" class="edge">
<title>CollectionComponent&#45;&gt;HeatmapsModule</title>
<path fill="none" stroke="#000000" d="M577,-122.1061C577,-141.3391 577,-169 577,-169 577,-169 396.832,-169 396.832,-169"/>
<polygon fill="#000000" stroke="#000000" points="396.832,-165.5001 386.832,-169 396.832,-172.5001 396.832,-165.5001"/>
</g>
<!-- HeatmapsPageComponent -->
<g id="node2" class="node">
<title>HeatmapsPageComponent</title>
<polygon fill="#ffffb3" stroke="#000000" points="489.0211,-122 324.9789,-122 324.9789,-86 489.0211,-86 489.0211,-122"/>
<text text-anchor="middle" x="407" y="-99.8" font-family="Times,serif" font-size="14.00" fill="#000000">HeatmapsPageComponent</text>
</g>
<!-- HeatmapsPageComponent&#45;&gt;HeatmapsModule -->
<g id="edge2" class="edge">
<title>HeatmapsPageComponent&#45;&gt;HeatmapsModule</title>
<path fill="none" stroke="#000000" d="M355.7514,-122.1061C355.7514,-122.1061 355.7514,-140.991 355.7514,-140.991"/>
<polygon fill="#000000" stroke="#000000" points="352.2515,-140.9909 355.7514,-150.991 359.2515,-140.991 352.2515,-140.9909"/>
</g>
<!-- SharedModule -->
<g id="node4" class="node">
<title>SharedModule</title>
<polygon fill="#8dd3c7" stroke="#000000" points="301.4231,-122 298.4231,-126 277.4231,-126 274.4231,-122 202.5769,-122 202.5769,-86 301.4231,-86 301.4231,-122"/>
<text text-anchor="middle" x="252" y="-99.8" font-family="Times,serif" font-size="14.00" fill="#000000">SharedModule</text>
</g>
<!-- SharedModule&#45;&gt;HeatmapsModule -->
<g id="edge3" class="edge">
<title>SharedModule&#45;&gt;HeatmapsModule</title>
<path fill="none" stroke="#000000" d="M286.2241,-122.1061C286.2241,-122.1061 286.2241,-140.991 286.2241,-140.991"/>
<polygon fill="#000000" stroke="#000000" points="282.7241,-140.9909 286.2241,-150.991 289.7241,-140.991 282.7241,-140.9909"/>
</g>
<!-- HeatmapsRoutingModule -->
<g id="node5" class="node">
<title>HeatmapsRoutingModule</title>
<polygon fill="#8dd3c7" stroke="#000000" points="184.1442,-122 181.1442,-126 160.1442,-126 157.1442,-122 23.8558,-122 23.8558,-86 184.1442,-86 184.1442,-122"/>
<text text-anchor="middle" x="104" y="-99.8" font-family="Times,serif" font-size="14.00" fill="#000000">HeatmapsRoutingModule</text>
</g>
<!-- HeatmapsRoutingModule&#45;&gt;HeatmapsModule -->
<g id="edge4" class="edge">
<title>HeatmapsRoutingModule&#45;&gt;HeatmapsModule</title>
<path fill="none" stroke="#000000" d="M104,-122.1061C104,-141.3391 104,-169 104,-169 104,-169 261.3491,-169 261.3491,-169"/>
<polygon fill="#000000" stroke="#000000" points="261.3491,-172.5001 271.3491,-169 261.3491,-165.5001 261.3491,-172.5001"/>
</g>
</g>
</svg>
