<?xml version="1.0" encoding="UTF-8" standalone="no"?>
<!DOCTYPE svg PUBLIC "-//W3C//DTD SVG 1.1//EN"
 "http://www.w3.org/Graphics/SVG/1.1/DTD/svg11.dtd">
<!-- Generated by graphviz version 2.40.1 (20161225.0304)
 -->
<!-- Title: dependencies Pages: 1 -->
<svg width="801pt" height="284pt"
 viewBox="0.00 0.00 801.00 284.00" xmlns="http://www.w3.org/2000/svg" xmlns:xlink="http://www.w3.org/1999/xlink">
<g id="graph0" class="graph" transform="scale(1 1) rotate(0) translate(4 280)">
<title>dependencies</title>
<polygon fill="#ffffff" stroke="transparent" points="-4,4 -4,-280 797,-280 797,4 -4,4"/>
<text text-anchor="start" x="375.5091" y="-42.4" font-family="sans-serif" font-weight="bold" font-size="14.00" fill="#000000">Legend</text>
<polygon fill="#ffffb3" stroke="transparent" points="162.5,-10 162.5,-30 182.5,-30 182.5,-10 162.5,-10"/>
<text text-anchor="start" x="186.129" y="-15.4" font-family="sans-serif" font-size="14.00" fill="#000000"> &#160;Declarations</text>
<polygon fill="#8dd3c7" stroke="transparent" points="275.5,-10 275.5,-30 295.5,-30 295.5,-10 275.5,-10"/>
<text text-anchor="start" x="299.2251" y="-15.4" font-family="sans-serif" font-size="14.00" fill="#000000"> &#160;Module</text>
<polygon fill="#80b1d3" stroke="transparent" points="361.5,-10 361.5,-30 381.5,-30 381.5,-10 361.5,-10"/>
<text text-anchor="start" x="385.2812" y="-15.4" font-family="sans-serif" font-size="14.00" fill="#000000"> &#160;Bootstrap</text>
<polygon fill="#fdb462" stroke="transparent" points="458.5,-10 458.5,-30 478.5,-30 478.5,-10 458.5,-10"/>
<text text-anchor="start" x="482.1732" y="-15.4" font-family="sans-serif" font-size="14.00" fill="#000000"> &#160;Providers</text>
<polygon fill="#fb8072" stroke="transparent" points="554.5,-10 554.5,-30 574.5,-30 574.5,-10 554.5,-10"/>
<text text-anchor="start" x="578.2258" y="-15.4" font-family="sans-serif" font-size="14.00" fill="#000000"> &#160;Exports</text>
<g id="clust1" class="cluster">
<title>cluster_AppModule</title>
<polygon fill="none" stroke="#000000" stroke-dasharray="1,5" points="8,-70 8,-268 785,-268 785,-70 8,-70"/>
</g>
<g id="clust2" class="cluster">
<title>cluster_AppModule_declarations</title>
<polygon fill="none" stroke="#000000" points="655,-78 655,-130 777,-130 777,-78 655,-78"/>
</g>
<g id="clust4" class="cluster">
<title>cluster_AppModule_imports</title>
<polygon fill="none" stroke="#000000" points="16,-78 16,-130 647,-130 647,-78 16,-78"/>
</g>
<g id="clust6" class="cluster">
<title>cluster_AppModule_bootstrap</title>
<polygon fill="none" stroke="#000000" points="330,-208 330,-260 454,-260 454,-208 330,-208"/>
</g>
<!-- AppComponent -->
<g id="node1" class="node">
<title>AppComponent</title>
<polygon fill="#ffffb3" stroke="#000000" points="768.9399,-122 663.0601,-122 663.0601,-86 768.9399,-86 768.9399,-122"/>
<text text-anchor="middle" x="716" y="-99.8" font-family="Times,serif" font-size="14.00" fill="#000000">AppComponent</text>
</g>
<!-- AppModule -->
<g id="node2" class="node">
<title>AppModule</title>
<polygon fill="#8dd3c7" stroke="#000000" points="433.6571,-187 430.6571,-191 409.6571,-191 406.6571,-187 350.3429,-187 350.3429,-151 433.6571,-151 433.6571,-187"/>
<text text-anchor="middle" x="392" y="-164.8" font-family="Times,serif" font-size="14.00" fill="#000000">AppModule</text>
</g>
<!-- AppComponent&#45;&gt;AppModule -->
<g id="edge1" class="edge">
<title>AppComponent&#45;&gt;AppModule</title>
<path fill="none" stroke="#000000" d="M716,-122.2843C716,-143.3211 716,-175 716,-175 716,-175 443.694,-175 443.694,-175"/>
<polygon fill="#000000" stroke="#000000" points="443.6941,-171.5001 433.694,-175 443.694,-178.5001 443.6941,-171.5001"/>
</g>
<!-- AppComponent  -->
<g id="node8" class="node">
<title>AppComponent </title>
<polygon fill="#80b1d3" stroke="#000000" points="446.439,-252 337.561,-252 337.561,-216 446.439,-216 446.439,-252"/>
<text text-anchor="middle" x="392" y="-229.8" font-family="Times,serif" font-size="14.00" fill="#000000">AppComponent </text>
</g>
<!-- AppModule&#45;&gt;AppComponent  -->
<g id="edge7" class="edge">
<title>AppModule&#45;&gt;AppComponent </title>
<path fill="none" stroke="#000000" stroke-dasharray="1,5" d="M392,-187.1061C392,-187.1061 392,-205.991 392,-205.991"/>
<polygon fill="#000000" stroke="#000000" points="388.5001,-205.9909 392,-215.991 395.5001,-205.991 388.5001,-205.9909"/>
</g>
<!-- AppRoutingModule -->
<g id="node3" class="node">
<title>AppRoutingModule</title>
<polygon fill="#8dd3c7" stroke="#000000" points="639.2744,-122 636.2744,-126 615.2744,-126 612.2744,-122 510.7256,-122 510.7256,-86 639.2744,-86 639.2744,-122"/>
<text text-anchor="middle" x="575" y="-99.8" font-family="Times,serif" font-size="14.00" fill="#000000">AppRoutingModule</text>
</g>
<!-- AppRoutingModule&#45;&gt;AppModule -->
<g id="edge2" class="edge">
<title>AppRoutingModule&#45;&gt;AppModule</title>
<path fill="none" stroke="#000000" d="M575,-122.0225C575,-139.3734 575,-163 575,-163 575,-163 443.9839,-163 443.9839,-163"/>
<polygon fill="#000000" stroke="#000000" points="443.9839,-159.5001 433.9839,-163 443.9839,-166.5001 443.9839,-159.5001"/>
</g>
<!-- CoreModule -->
<g id="node4" class="node">
<title>CoreModule</title>
<polygon fill="#8dd3c7" stroke="#000000" points="492.2619,-122 489.2619,-126 468.2619,-126 465.2619,-122 405.7381,-122 405.7381,-86 492.2619,-86 492.2619,-122"/>
<text text-anchor="middle" x="449" y="-99.8" font-family="Times,serif" font-size="14.00" fill="#000000">CoreModule</text>
</g>
<!-- CoreModule&#45;&gt;AppModule -->
<g id="edge3" class="edge">
<title>CoreModule&#45;&gt;AppModule</title>
<path fill="none" stroke="#000000" d="M419.7237,-122.1061C419.7237,-122.1061 419.7237,-140.991 419.7237,-140.991"/>
<polygon fill="#000000" stroke="#000000" points="416.2238,-140.9909 419.7237,-150.991 423.2238,-140.991 416.2238,-140.9909"/>
</g>
<!-- ProjectsModule -->
<g id="node5" class="node">
<title>ProjectsModule</title>
<polygon fill="#8dd3c7" stroke="#000000" points="387.1486,-122 384.1486,-126 363.1486,-126 360.1486,-122 282.8514,-122 282.8514,-86 387.1486,-86 387.1486,-122"/>
<text text-anchor="middle" x="335" y="-99.8" font-family="Times,serif" font-size="14.00" fill="#000000">ProjectsModule</text>
</g>
<!-- ProjectsModule&#45;&gt;AppModule -->
<g id="edge4" class="edge">
<title>ProjectsModule&#45;&gt;AppModule</title>
<path fill="none" stroke="#000000" d="M368.7479,-122.1061C368.7479,-122.1061 368.7479,-140.991 368.7479,-140.991"/>
<polygon fill="#000000" stroke="#000000" points="365.248,-140.9909 368.7479,-150.991 372.248,-140.991 365.248,-140.9909"/>
</g>
<!-- DatasetsModule -->
<g id="node6" class="node">
<title>DatasetsModule</title>
<polygon fill="#8dd3c7" stroke="#000000" points="264.4706,-122 261.4706,-126 240.4706,-126 237.4706,-122 157.5294,-122 157.5294,-86 264.4706,-86 264.4706,-122"/>
<text text-anchor="middle" x="211" y="-99.8" font-family="Times,serif" font-size="14.00" fill="#000000">DatasetsModule</text>
</g>
<!-- DatasetsModule&#45;&gt;AppModule -->
<g id="edge5" class="edge">
<title>DatasetsModule&#45;&gt;AppModule</title>
<path fill="none" stroke="#000000" d="M211,-122.0225C211,-139.3734 211,-163 211,-163 211,-163 340.02,-163 340.02,-163"/>
<polygon fill="#000000" stroke="#000000" points="340.0201,-166.5001 350.02,-163 340.02,-159.5001 340.0201,-166.5001"/>
</g>
<!-- HeatmapsModule -->
<g id="node7" class="node">
<title>HeatmapsModule</title>
<polygon fill="#8dd3c7" stroke="#000000" points="139.527,-122 136.527,-126 115.527,-126 112.527,-122 24.473,-122 24.473,-86 139.527,-86 139.527,-122"/>
<text text-anchor="middle" x="82" y="-99.8" font-family="Times,serif" font-size="14.00" fill="#000000">HeatmapsModule</text>
</g>
<!-- HeatmapsModule&#45;&gt;AppModule -->
<g id="edge6" class="edge">
<title>HeatmapsModule&#45;&gt;AppModule</title>
<path fill="none" stroke="#000000" d="M82,-122.2843C82,-143.3211 82,-175 82,-175 82,-175 340.192,-175 340.192,-175"/>
<polygon fill="#000000" stroke="#000000" points="340.1921,-178.5001 350.192,-175 340.192,-171.5001 340.1921,-178.5001"/>
</g>
</g>
</svg>
