<?xml version="1.0" encoding="UTF-8" standalone="no"?>
<!DOCTYPE svg PUBLIC "-//W3C//DTD SVG 1.1//EN"
 "http://www.w3.org/Graphics/SVG/1.1/DTD/svg11.dtd">
<!-- Generated by graphviz version 2.40.1 (20161225.0304)
 -->
<!-- Title: dependencies Pages: 1 -->
<svg width="1173pt" height="211pt"
 viewBox="0.00 0.00 1173.00 211.00" xmlns="http://www.w3.org/2000/svg" xmlns:xlink="http://www.w3.org/1999/xlink">
<g id="graph0" class="graph" transform="scale(1 1) rotate(0) translate(4 207)">
<title>dependencies</title>
<polygon fill="#ffffff" stroke="transparent" points="-4,4 -4,-207 1169,-207 1169,4 -4,4"/>
<text text-anchor="start" x="561.5091" y="-42.4" font-family="sans-serif" font-weight="bold" font-size="14.00" fill="#000000">Legend</text>
<polygon fill="#ffffb3" stroke="transparent" points="348.5,-10 348.5,-30 368.5,-30 368.5,-10 348.5,-10"/>
<text text-anchor="start" x="372.129" y="-15.4" font-family="sans-serif" font-size="14.00" fill="#000000"> &#160;Declarations</text>
<polygon fill="#8dd3c7" stroke="transparent" points="461.5,-10 461.5,-30 481.5,-30 481.5,-10 461.5,-10"/>
<text text-anchor="start" x="485.2251" y="-15.4" font-family="sans-serif" font-size="14.00" fill="#000000"> &#160;Module</text>
<polygon fill="#80b1d3" stroke="transparent" points="547.5,-10 547.5,-30 567.5,-30 567.5,-10 547.5,-10"/>
<text text-anchor="start" x="571.2812" y="-15.4" font-family="sans-serif" font-size="14.00" fill="#000000"> &#160;Bootstrap</text>
<polygon fill="#fdb462" stroke="transparent" points="644.5,-10 644.5,-30 664.5,-30 664.5,-10 644.5,-10"/>
<text text-anchor="start" x="668.1732" y="-15.4" font-family="sans-serif" font-size="14.00" fill="#000000"> &#160;Providers</text>
<polygon fill="#fb8072" stroke="transparent" points="740.5,-10 740.5,-30 760.5,-30 760.5,-10 740.5,-10"/>
<text text-anchor="start" x="764.2258" y="-15.4" font-family="sans-serif" font-size="14.00" fill="#000000"> &#160;Exports</text>
<g id="clust1" class="cluster">
<title>cluster_ProjectsModule</title>
<polygon fill="none" stroke="#000000" stroke-dasharray="1,5" points="8,-70 8,-195 1157,-195 1157,-70 8,-70"/>
</g>
<g id="clust2" class="cluster">
<title>cluster_ProjectsModule_declarations</title>
<polygon fill="none" stroke="#000000" points="508,-78 508,-130 1149,-130 1149,-78 508,-78"/>
</g>
<g id="clust7" class="cluster">
<title>cluster_ProjectsModule_imports</title>
<polygon fill="none" stroke="#000000" points="218,-78 218,-130 500,-130 500,-78 218,-78"/>
</g>
<g id="clust10" class="cluster">
<title>cluster_ProjectsModule_providers</title>
<polygon fill="none" stroke="#000000" points="16,-78 16,-130 210,-130 210,-78 16,-78"/>
</g>
<!-- CollectionComponent -->
<g id="node1" class="node">
<title>CollectionComponent</title>
<polygon fill="#ffffb3" stroke="#000000" points="1140.661,-122 1001.339,-122 1001.339,-86 1140.661,-86 1140.661,-122"/>
<text text-anchor="middle" x="1071" y="-99.8" font-family="Times,serif" font-size="14.00" fill="#000000">CollectionComponent</text>
</g>
<!-- ProjectsModule -->
<g id="node5" class="node">
<title>ProjectsModule</title>
<polygon fill="#8dd3c7" stroke="#000000" points="660.1486,-187 657.1486,-191 636.1486,-191 633.1486,-187 555.8514,-187 555.8514,-151 660.1486,-151 660.1486,-187"/>
<text text-anchor="middle" x="608" y="-164.8" font-family="Times,serif" font-size="14.00" fill="#000000">ProjectsModule</text>
</g>
<!-- CollectionComponent&#45;&gt;ProjectsModule -->
<g id="edge1" class="edge">
<title>CollectionComponent&#45;&gt;ProjectsModule</title>
<path fill="none" stroke="#000000" d="M1071,-122.2921C1071,-144.2057 1071,-178 1071,-178 1071,-178 670.212,-178 670.212,-178"/>
<polygon fill="#000000" stroke="#000000" points="670.212,-174.5001 660.212,-178 670.2119,-181.5001 670.212,-174.5001"/>
</g>
<!-- EditComponent -->
<g id="node2" class="node">
<title>EditComponent</title>
<polygon fill="#ffffb3" stroke="#000000" points="983.1667,-122 878.8333,-122 878.8333,-86 983.1667,-86 983.1667,-122"/>
<text text-anchor="middle" x="931" y="-99.8" font-family="Times,serif" font-size="14.00" fill="#000000">EditComponent</text>
</g>
<!-- EditComponent&#45;&gt;ProjectsModule -->
<g id="edge2" class="edge">
<title>EditComponent&#45;&gt;ProjectsModule</title>
<path fill="none" stroke="#000000" d="M931,-122.1061C931,-141.3391 931,-169 931,-169 931,-169 670.2545,-169 670.2545,-169"/>
<polygon fill="#000000" stroke="#000000" points="670.2546,-165.5001 660.2545,-169 670.2545,-172.5001 670.2546,-165.5001"/>
</g>
<!-- ProjectListComponent -->
<g id="node3" class="node">
<title>ProjectListComponent</title>
<polygon fill="#ffffb3" stroke="#000000" points="860.2646,-122 717.7354,-122 717.7354,-86 860.2646,-86 860.2646,-122"/>
<text text-anchor="middle" x="789" y="-99.8" font-family="Times,serif" font-size="14.00" fill="#000000">ProjectListComponent</text>
</g>
<!-- ProjectListComponent&#45;&gt;ProjectsModule -->
<g id="edge3" class="edge">
<title>ProjectListComponent&#45;&gt;ProjectsModule</title>
<path fill="none" stroke="#000000" d="M789,-122.027C789,-138.3976 789,-160 789,-160 789,-160 670.3527,-160 670.3527,-160"/>
<polygon fill="#000000" stroke="#000000" points="670.3527,-156.5001 660.3527,-160 670.3527,-163.5001 670.3527,-156.5001"/>
</g>
<!-- EditProjectDetailsComponent -->
<g id="node4" class="node">
<title>EditProjectDetailsComponent</title>
<polygon fill="#ffffb3" stroke="#000000" points="699.972,-122 516.028,-122 516.028,-86 699.972,-86 699.972,-122"/>
<text text-anchor="middle" x="608" y="-99.8" font-family="Times,serif" font-size="14.00" fill="#000000">EditProjectDetailsComponent</text>
</g>
<!-- EditProjectDetailsComponent&#45;&gt;ProjectsModule -->
<g id="edge4" class="edge">
<title>EditProjectDetailsComponent&#45;&gt;ProjectsModule</title>
<path fill="none" stroke="#000000" d="M608,-122.1061C608,-122.1061 608,-140.991 608,-140.991"/>
<polygon fill="#000000" stroke="#000000" points="604.5001,-140.9909 608,-150.991 611.5001,-140.991 604.5001,-140.9909"/>
</g>
<!-- SharedModule -->
<g id="node6" class="node">
<title>SharedModule</title>
<polygon fill="#8dd3c7" stroke="#000000" points="492.4231,-122 489.4231,-126 468.4231,-126 465.4231,-122 393.5769,-122 393.5769,-86 492.4231,-86 492.4231,-122"/>
<text text-anchor="middle" x="443" y="-99.8" font-family="Times,serif" font-size="14.00" fill="#000000">SharedModule</text>
</g>
<!-- SharedModule&#45;&gt;ProjectsModule -->
<g id="edge5" class="edge">
<title>SharedModule&#45;&gt;ProjectsModule</title>
<path fill="none" stroke="#000000" d="M443,-122.027C443,-138.3976 443,-160 443,-160 443,-160 545.793,-160 545.793,-160"/>
<polygon fill="#000000" stroke="#000000" points="545.793,-163.5001 555.793,-160 545.7929,-156.5001 545.793,-163.5001"/>
</g>
<!-- ProjectsRoutingModule -->
<g id="node7" class="node">
<title>ProjectsRoutingModule</title>
<polygon fill="#8dd3c7" stroke="#000000" points="375.766,-122 372.766,-126 351.766,-126 348.766,-122 226.234,-122 226.234,-86 375.766,-86 375.766,-122"/>
<text text-anchor="middle" x="301" y="-99.8" font-family="Times,serif" font-size="14.00" fill="#000000">ProjectsRoutingModule</text>
</g>
<!-- ProjectsRoutingModule&#45;&gt;ProjectsModule -->
<g id="edge6" class="edge">
<title>ProjectsRoutingModule&#45;&gt;ProjectsModule</title>
<path fill="none" stroke="#000000" d="M301,-122.1061C301,-141.3391 301,-169 301,-169 301,-169 545.5736,-169 545.5736,-169"/>
<polygon fill="#000000" stroke="#000000" points="545.5737,-172.5001 555.5736,-169 545.5736,-165.5001 545.5737,-172.5001"/>
</g>
<!-- ProjectsDataService -->
<g id="node8" class="node">
<title>ProjectsDataService</title>
<ellipse fill="#fdb462" stroke="#000000" cx="113" cy="-104" rx="89.1568" ry="18"/>
<text text-anchor="middle" x="113" y="-99.8" font-family="Times,serif" font-size="14.00" fill="#000000">ProjectsDataService</text>
</g>
<!-- ProjectsDataService&#45;&gt;ProjectsModule -->
<g id="edge7" class="edge">
<title>ProjectsDataService&#45;&gt;ProjectsModule</title>
<path fill="none" stroke="#000000" d="M113,-122.2921C113,-144.2057 113,-178 113,-178 113,-178 545.495,-178 545.495,-178"/>
<polygon fill="#000000" stroke="#000000" points="545.495,-181.5001 555.495,-178 545.4949,-174.5001 545.495,-181.5001"/>
</g>
</g>
</svg>
