<?xml version="1.0" encoding="UTF-8" standalone="no"?>
<!DOCTYPE svg PUBLIC "-//W3C//DTD SVG 1.1//EN"
 "http://www.w3.org/Graphics/SVG/1.1/DTD/svg11.dtd">
<!-- Generated by graphviz version 2.40.1 (20161225.0304)
 -->
<!-- Title: dependencies Pages: 1 -->
<svg width="1228pt" height="211pt"
 viewBox="0.00 0.00 1228.00 211.00" xmlns="http://www.w3.org/2000/svg" xmlns:xlink="http://www.w3.org/1999/xlink">
<g id="graph0" class="graph" transform="scale(1 1) rotate(0) translate(4 207)">
<title>dependencies</title>
<polygon fill="#ffffff" stroke="transparent" points="-4,4 -4,-207 1224,-207 1224,4 -4,4"/>
<text text-anchor="start" x="589.0091" y="-42.4" font-family="sans-serif" font-weight="bold" font-size="14.00" fill="#000000">Legend</text>
<polygon fill="#ffffb3" stroke="transparent" points="376,-10 376,-30 396,-30 396,-10 376,-10"/>
<text text-anchor="start" x="399.629" y="-15.4" font-family="sans-serif" font-size="14.00" fill="#000000"> &#160;Declarations</text>
<polygon fill="#8dd3c7" stroke="transparent" points="489,-10 489,-30 509,-30 509,-10 489,-10"/>
<text text-anchor="start" x="512.7251" y="-15.4" font-family="sans-serif" font-size="14.00" fill="#000000"> &#160;Module</text>
<polygon fill="#80b1d3" stroke="transparent" points="575,-10 575,-30 595,-30 595,-10 575,-10"/>
<text text-anchor="start" x="598.7812" y="-15.4" font-family="sans-serif" font-size="14.00" fill="#000000"> &#160;Bootstrap</text>
<polygon fill="#fdb462" stroke="transparent" points="672,-10 672,-30 692,-30 692,-10 672,-10"/>
<text text-anchor="start" x="695.6732" y="-15.4" font-family="sans-serif" font-size="14.00" fill="#000000"> &#160;Providers</text>
<polygon fill="#fb8072" stroke="transparent" points="768,-10 768,-30 788,-30 788,-10 768,-10"/>
<text text-anchor="start" x="791.7258" y="-15.4" font-family="sans-serif" font-size="14.00" fill="#000000"> &#160;Exports</text>
<g id="clust1" class="cluster">
<title>cluster_DatasetsModule</title>
<polygon fill="none" stroke="#000000" stroke-dasharray="1,5" points="8,-70 8,-195 1212,-195 1212,-70 8,-70"/>
</g>
<g id="clust2" class="cluster">
<title>cluster_DatasetsModule_declarations</title>
<polygon fill="none" stroke="#000000" points="506,-78 506,-130 1204,-130 1204,-78 506,-78"/>
</g>
<g id="clust7" class="cluster">
<title>cluster_DatasetsModule_imports</title>
<polygon fill="none" stroke="#000000" points="214,-78 214,-130 498,-130 498,-78 214,-78"/>
</g>
<g id="clust10" class="cluster">
<title>cluster_DatasetsModule_providers</title>
<polygon fill="none" stroke="#000000" points="16,-78 16,-130 206,-130 206,-78 16,-78"/>
</g>
<!-- ViewDatasetComponent -->
<g id="node1" class="node">
<title>ViewDatasetComponent</title>
<polygon fill="#ffffb3" stroke="#000000" points="1195.6275,-122 1042.3725,-122 1042.3725,-86 1195.6275,-86 1195.6275,-122"/>
<text text-anchor="middle" x="1119" y="-99.8" font-family="Times,serif" font-size="14.00" fill="#000000">ViewDatasetComponent</text>
</g>
<!-- DatasetsModule -->
<g id="node5" class="node">
<title>DatasetsModule</title>
<polygon fill="#8dd3c7" stroke="#000000" points="641.4706,-187 638.4706,-191 617.4706,-191 614.4706,-187 534.5294,-187 534.5294,-151 641.4706,-151 641.4706,-187"/>
<text text-anchor="middle" x="588" y="-164.8" font-family="Times,serif" font-size="14.00" fill="#000000">DatasetsModule</text>
</g>
<!-- ViewDatasetComponent&#45;&gt;DatasetsModule -->
<g id="edge1" class="edge">
<title>ViewDatasetComponent&#45;&gt;DatasetsModule</title>
<path fill="none" stroke="#000000" d="M1119,-122.2921C1119,-144.2057 1119,-178 1119,-178 1119,-178 651.8373,-178 651.8373,-178"/>
<polygon fill="#000000" stroke="#000000" points="651.8373,-174.5001 641.8373,-178 651.8373,-181.5001 651.8373,-174.5001"/>
</g>
<!-- DatasetDetailsComponent -->
<g id="node2" class="node">
<title>DatasetDetailsComponent</title>
<polygon fill="#ffffb3" stroke="#000000" points="1024.4608,-122 861.5392,-122 861.5392,-86 1024.4608,-86 1024.4608,-122"/>
<text text-anchor="middle" x="943" y="-99.8" font-family="Times,serif" font-size="14.00" fill="#000000">DatasetDetailsComponent</text>
</g>
<!-- DatasetDetailsComponent&#45;&gt;DatasetsModule -->
<g id="edge2" class="edge">
<title>DatasetDetailsComponent&#45;&gt;DatasetsModule</title>
<path fill="none" stroke="#000000" d="M943,-122.1061C943,-141.3391 943,-169 943,-169 943,-169 651.5315,-169 651.5315,-169"/>
<polygon fill="#000000" stroke="#000000" points="651.5315,-165.5001 641.5315,-169 651.5314,-172.5001 651.5315,-165.5001"/>
</g>
<!-- ConceptsViewComponent -->
<g id="node3" class="node">
<title>ConceptsViewComponent</title>
<polygon fill="#ffffb3" stroke="#000000" points="843.752,-122 680.248,-122 680.248,-86 843.752,-86 843.752,-122"/>
<text text-anchor="middle" x="762" y="-99.8" font-family="Times,serif" font-size="14.00" fill="#000000">ConceptsViewComponent</text>
</g>
<!-- ConceptsViewComponent&#45;&gt;DatasetsModule -->
<g id="edge3" class="edge">
<title>ConceptsViewComponent&#45;&gt;DatasetsModule</title>
<path fill="none" stroke="#000000" d="M762,-122.027C762,-138.3976 762,-160 762,-160 762,-160 651.6255,-160 651.6255,-160"/>
<polygon fill="#000000" stroke="#000000" points="651.6256,-156.5001 641.6255,-160 651.6255,-163.5001 651.6256,-156.5001"/>
</g>
<!-- FiltersViewComponent -->
<g id="node4" class="node">
<title>FiltersViewComponent</title>
<polygon fill="#ffffb3" stroke="#000000" points="661.9256,-122 514.0744,-122 514.0744,-86 661.9256,-86 661.9256,-122"/>
<text text-anchor="middle" x="588" y="-99.8" font-family="Times,serif" font-size="14.00" fill="#000000">FiltersViewComponent</text>
</g>
<!-- FiltersViewComponent&#45;&gt;DatasetsModule -->
<g id="edge4" class="edge">
<title>FiltersViewComponent&#45;&gt;DatasetsModule</title>
<path fill="none" stroke="#000000" d="M588,-122.1061C588,-122.1061 588,-140.991 588,-140.991"/>
<polygon fill="#000000" stroke="#000000" points="584.5001,-140.9909 588,-150.991 591.5001,-140.991 584.5001,-140.9909"/>
</g>
<!-- SharedModule -->
<g id="node6" class="node">
<title>SharedModule</title>
<polygon fill="#8dd3c7" stroke="#000000" points="490.4231,-122 487.4231,-126 466.4231,-126 463.4231,-122 391.5769,-122 391.5769,-86 490.4231,-86 490.4231,-122"/>
<text text-anchor="middle" x="441" y="-99.8" font-family="Times,serif" font-size="14.00" fill="#000000">SharedModule</text>
</g>
<!-- SharedModule&#45;&gt;DatasetsModule -->
<g id="edge5" class="edge">
<title>SharedModule&#45;&gt;DatasetsModule</title>
<path fill="none" stroke="#000000" d="M441,-122.027C441,-138.3976 441,-160 441,-160 441,-160 524.5138,-160 524.5138,-160"/>
<polygon fill="#000000" stroke="#000000" points="524.5138,-163.5001 534.5138,-160 524.5138,-156.5001 524.5138,-163.5001"/>
</g>
<!-- DatasetsRoutingModule -->
<g id="node7" class="node">
<title>DatasetsRoutingModule</title>
<polygon fill="#8dd3c7" stroke="#000000" points="374.0884,-122 371.0884,-126 350.0884,-126 347.0884,-122 221.9116,-122 221.9116,-86 374.0884,-86 374.0884,-122"/>
<text text-anchor="middle" x="298" y="-99.8" font-family="Times,serif" font-size="14.00" fill="#000000">DatasetsRoutingModule</text>
</g>
<!-- DatasetsRoutingModule&#45;&gt;DatasetsModule -->
<g id="edge6" class="edge">
<title>DatasetsRoutingModule&#45;&gt;DatasetsModule</title>
<path fill="none" stroke="#000000" d="M298,-122.1061C298,-141.3391 298,-169 298,-169 298,-169 524.4716,-169 524.4716,-169"/>
<polygon fill="#000000" stroke="#000000" points="524.4716,-172.5001 534.4716,-169 524.4715,-165.5001 524.4716,-172.5001"/>
</g>
<!-- DatasetDataService -->
<g id="node8" class="node">
<title>DatasetDataService</title>
<ellipse fill="#fdb462" stroke="#000000" cx="111" cy="-104" rx="87.3499" ry="18"/>
<text text-anchor="middle" x="111" y="-99.8" font-family="Times,serif" font-size="14.00" fill="#000000">DatasetDataService</text>
</g>
<!-- DatasetDataService&#45;&gt;DatasetsModule -->
<g id="edge7" class="edge">
<title>DatasetDataService&#45;&gt;DatasetsModule</title>
<path fill="none" stroke="#000000" d="M111,-122.2921C111,-144.2057 111,-178 111,-178 111,-178 524.2093,-178 524.2093,-178"/>
<polygon fill="#000000" stroke="#000000" points="524.2093,-181.5001 534.2093,-178 524.2092,-174.5001 524.2093,-181.5001"/>
</g>
</g>
</svg>
