<?xml version="1.0" encoding="UTF-8" standalone="no"?>
<!DOCTYPE svg PUBLIC "-//W3C//DTD SVG 1.1//EN"
 "http://www.w3.org/Graphics/SVG/1.1/DTD/svg11.dtd">
<!-- Generated by graphviz version 2.40.1 (20161225.0304)
 -->
<!-- Title: dependencies Pages: 1 -->
<svg width="3473pt" height="360pt"
 viewBox="0.00 0.00 3473.00 360.00" xmlns="http://www.w3.org/2000/svg" xmlns:xlink="http://www.w3.org/1999/xlink">
<g id="graph0" class="graph" transform="scale(1 1) rotate(0) translate(4 356)">
<title>dependencies</title>
<polygon fill="#ffffff" stroke="transparent" points="-4,4 -4,-356 3469,-356 3469,4 -4,4"/>
<text text-anchor="start" x="1711.5091" y="-42.4" font-family="sans-serif" font-weight="bold" font-size="14.00" fill="#000000">Legend</text>
<polygon fill="#ffffb3" stroke="transparent" points="1498.5,-10 1498.5,-30 1518.5,-30 1518.5,-10 1498.5,-10"/>
<text text-anchor="start" x="1522.129" y="-15.4" font-family="sans-serif" font-size="14.00" fill="#000000"> &#160;Declarations</text>
<polygon fill="#8dd3c7" stroke="transparent" points="1611.5,-10 1611.5,-30 1631.5,-30 1631.5,-10 1611.5,-10"/>
<text text-anchor="start" x="1635.2251" y="-15.4" font-family="sans-serif" font-size="14.00" fill="#000000"> &#160;Module</text>
<polygon fill="#80b1d3" stroke="transparent" points="1697.5,-10 1697.5,-30 1717.5,-30 1717.5,-10 1697.5,-10"/>
<text text-anchor="start" x="1721.2812" y="-15.4" font-family="sans-serif" font-size="14.00" fill="#000000"> &#160;Bootstrap</text>
<polygon fill="#fdb462" stroke="transparent" points="1794.5,-10 1794.5,-30 1814.5,-30 1814.5,-10 1794.5,-10"/>
<text text-anchor="start" x="1818.1732" y="-15.4" font-family="sans-serif" font-size="14.00" fill="#000000"> &#160;Providers</text>
<polygon fill="#fb8072" stroke="transparent" points="1890.5,-10 1890.5,-30 1910.5,-30 1910.5,-10 1890.5,-10"/>
<text text-anchor="start" x="1914.2258" y="-15.4" font-family="sans-serif" font-size="14.00" fill="#000000"> &#160;Exports</text>
<g id="clust1" class="cluster">
<title>cluster_AppModule</title>
<polygon fill="none" stroke="#000000" stroke-dasharray="1,5" points="1470,-146 1470,-344 2246,-344 2246,-146 1470,-146"/>
</g>
<g id="clust2" class="cluster">
<title>cluster_AppModule_declarations</title>
<polygon fill="none" stroke="#000000" points="2116,-154 2116,-206 2238,-206 2238,-154 2116,-154"/>
</g>
<g id="clust4" class="cluster">
<title>cluster_AppModule_imports</title>
<polygon fill="none" stroke="#000000" points="1478,-154 1478,-206 2108,-206 2108,-154 1478,-154"/>
</g>
<g id="clust6" class="cluster">
<title>cluster_AppModule_bootstrap</title>
<polygon fill="none" stroke="#000000" points="1817,-284 1817,-336 1941,-336 1941,-284 1817,-284"/>
</g>
<g id="clust14" class="cluster">
<title>cluster_CoreModule</title>
<polygon fill="none" stroke="#000000" stroke-dasharray="1,5" points="2532,-70 2532,-138 3284,-138 3284,-70 2532,-70"/>
</g>
<g id="clust15" class="cluster">
<title>cluster_CoreModule_declarations</title>
<polygon fill="none" stroke="#000000" points="3114,-78 3114,-130 3276,-130 3276,-78 3114,-78"/>
</g>
<g id="clust17" class="cluster">
<title>cluster_CoreModule_imports</title>
<polygon fill="none" stroke="#000000" points="2920,-78 2920,-130 3106,-130 3106,-78 2920,-78"/>
</g>
<g id="clust18" class="cluster">
<title>cluster_CoreModule_exports</title>
<polygon fill="none" stroke="#000000" points="2748,-78 2748,-130 2912,-130 2912,-78 2748,-78"/>
</g>
<g id="clust20" class="cluster">
<title>cluster_CoreModule_providers</title>
<polygon fill="none" stroke="#000000" points="2540,-78 2540,-130 2740,-130 2740,-78 2540,-78"/>
</g>
<g id="clust21" class="cluster">
<title>cluster_DatasetsModule</title>
<polygon fill="none" stroke="#000000" stroke-dasharray="1,5" points="8,-70 8,-138 1096,-138 1096,-70 8,-70"/>
</g>
<g id="clust22" class="cluster">
<title>cluster_DatasetsModule_declarations</title>
<polygon fill="none" stroke="#000000" points="390,-78 390,-130 1088,-130 1088,-78 390,-78"/>
</g>
<g id="clust27" class="cluster">
<title>cluster_DatasetsModule_imports</title>
<polygon fill="none" stroke="#000000" points="214,-78 214,-130 382,-130 382,-78 214,-78"/>
</g>
<g id="clust30" class="cluster">
<title>cluster_DatasetsModule_providers</title>
<polygon fill="none" stroke="#000000" points="16,-78 16,-130 206,-130 206,-78 16,-78"/>
</g>
<g id="clust37" class="cluster">
<title>cluster_HeatmapsModule</title>
<polygon fill="none" stroke="#000000" stroke-dasharray="1,5" points="1104,-70 1104,-138 1642,-138 1642,-70 1104,-70"/>
</g>
<g id="clust38" class="cluster">
<title>cluster_HeatmapsModule_declarations</title>
<polygon fill="none" stroke="#000000" points="1296,-78 1296,-130 1634,-130 1634,-78 1296,-78"/>
</g>
<g id="clust41" class="cluster">
<title>cluster_HeatmapsModule_imports</title>
<polygon fill="none" stroke="#000000" points="1112,-78 1112,-130 1288,-130 1288,-78 1112,-78"/>
</g>
<g id="clust57" class="cluster">
<title>cluster_ProjectsModule</title>
<polygon fill="none" stroke="#000000" stroke-dasharray="1,5" points="1650,-70 1650,-138 2524,-138 2524,-70 1650,-70"/>
</g>
<g id="clust58" class="cluster">
<title>cluster_ProjectsModule_declarations</title>
<polygon fill="none" stroke="#000000" points="2034,-78 2034,-130 2516,-130 2516,-78 2034,-78"/>
</g>
<g id="clust63" class="cluster">
<title>cluster_ProjectsModule_imports</title>
<polygon fill="none" stroke="#000000" points="1860,-78 1860,-130 2026,-130 2026,-78 1860,-78"/>
</g>
<g id="clust66" class="cluster">
<title>cluster_ProjectsModule_providers</title>
<polygon fill="none" stroke="#000000" points="1658,-78 1658,-130 1852,-130 1852,-78 1658,-78"/>
</g>
<g id="clust73" class="cluster">
<title>cluster_SharedModule</title>
<polygon fill="none" stroke="#000000" stroke-dasharray="1,5" points="2638,-146 2638,-214 3457,-214 3457,-146 2638,-146"/>
</g>
<g id="clust74" class="cluster">
<title>cluster_SharedModule_declarations</title>
<polygon fill="none" stroke="#000000" points="3184,-154 3184,-206 3449,-206 3449,-154 3184,-154"/>
</g>
<g id="clust77" class="cluster">
<title>cluster_SharedModule_imports</title>
<polygon fill="none" stroke="#000000" points="3054,-154 3054,-206 3176,-206 3176,-154 3054,-154"/>
</g>
<g id="clust78" class="cluster">
<title>cluster_SharedModule_exports</title>
<polygon fill="none" stroke="#000000" points="2646,-154 2646,-206 3046,-206 3046,-154 2646,-154"/>
</g>
<!-- AppComponent -->
<g id="node1" class="node">
<title>AppComponent</title>
<polygon fill="#ffffb3" stroke="#000000" points="2229.9399,-198 2124.0601,-198 2124.0601,-162 2229.9399,-162 2229.9399,-198"/>
<text text-anchor="middle" x="2177" y="-175.8" font-family="Times,serif" font-size="14.00" fill="#000000">AppComponent</text>
</g>
<!-- AppModule -->
<g id="node2" class="node">
<title>AppModule</title>
<polygon fill="#8dd3c7" stroke="#000000" points="1920.6571,-263 1917.6571,-267 1896.6571,-267 1893.6571,-263 1837.3429,-263 1837.3429,-227 1920.6571,-227 1920.6571,-263"/>
<text text-anchor="middle" x="1879" y="-240.8" font-family="Times,serif" font-size="14.00" fill="#000000">AppModule</text>
</g>
<!-- AppComponent&#45;&gt;AppModule -->
<g id="edge1" class="edge">
<title>AppComponent&#45;&gt;AppModule</title>
<path fill="none" stroke="#000000" d="M2177,-198.2843C2177,-219.3211 2177,-251 2177,-251 2177,-251 1930.7494,-251 1930.7494,-251"/>
<polygon fill="#000000" stroke="#000000" points="1930.7494,-247.5001 1920.7494,-251 1930.7494,-254.5001 1930.7494,-247.5001"/>
</g>
<!-- AppComponent  -->
<g id="node8" class="node">
<title>AppComponent </title>
<polygon fill="#80b1d3" stroke="#000000" points="1933.439,-328 1824.561,-328 1824.561,-292 1933.439,-292 1933.439,-328"/>
<text text-anchor="middle" x="1879" y="-305.8" font-family="Times,serif" font-size="14.00" fill="#000000">AppComponent </text>
</g>
<!-- AppModule&#45;&gt;AppComponent  -->
<g id="edge7" class="edge">
<title>AppModule&#45;&gt;AppComponent </title>
<path fill="none" stroke="#000000" stroke-dasharray="1,5" d="M1879,-263.1061C1879,-263.1061 1879,-281.991 1879,-281.991"/>
<polygon fill="#000000" stroke="#000000" points="1875.5001,-281.9909 1879,-291.991 1882.5001,-281.991 1875.5001,-281.9909"/>
</g>
<!-- AppRoutingModule -->
<g id="node3" class="node">
<title>AppRoutingModule</title>
<polygon fill="#8dd3c7" stroke="#000000" points="1614.2744,-198 1611.2744,-202 1590.2744,-202 1587.2744,-198 1485.7256,-198 1485.7256,-162 1614.2744,-162 1614.2744,-198"/>
<text text-anchor="middle" x="1550" y="-175.8" font-family="Times,serif" font-size="14.00" fill="#000000">AppRoutingModule</text>
</g>
<!-- AppRoutingModule&#45;&gt;AppModule -->
<g id="edge2" class="edge">
<title>AppRoutingModule&#45;&gt;AppModule</title>
<path fill="none" stroke="#000000" d="M1550,-198.2843C1550,-219.3211 1550,-251 1550,-251 1550,-251 1827.3319,-251 1827.3319,-251"/>
<polygon fill="#000000" stroke="#000000" points="1827.332,-254.5001 1837.3319,-251 1827.3319,-247.5001 1827.332,-254.5001"/>
</g>
<!-- CoreModule -->
<g id="node4" class="node">
<title>CoreModule</title>
<polygon fill="#8dd3c7" stroke="#000000" points="2100.2619,-198 2097.2619,-202 2076.2619,-202 2073.2619,-198 2013.7381,-198 2013.7381,-162 2100.2619,-162 2100.2619,-198"/>
<text text-anchor="middle" x="2057" y="-175.8" font-family="Times,serif" font-size="14.00" fill="#000000">CoreModule</text>
</g>
<!-- CoreModule&#45;&gt;AppModule -->
<g id="edge3" class="edge">
<title>CoreModule&#45;&gt;AppModule</title>
<path fill="none" stroke="#000000" d="M2057,-198.0225C2057,-215.3734 2057,-239 2057,-239 2057,-239 1930.7331,-239 1930.7331,-239"/>
<polygon fill="#000000" stroke="#000000" points="1930.7331,-235.5001 1920.7331,-239 1930.7331,-242.5001 1930.7331,-235.5001"/>
</g>
<!-- HeaderNavComponent  -->
<g id="node12" class="node">
<title>HeaderNavComponent </title>
<polygon fill="#fb8072" stroke="#000000" points="2904.0652,-122 2755.9348,-122 2755.9348,-86 2904.0652,-86 2904.0652,-122"/>
<text text-anchor="middle" x="2830" y="-99.8" font-family="Times,serif" font-size="14.00" fill="#000000">HeaderNavComponent </text>
</g>
<!-- CoreModule&#45;&gt;HeaderNavComponent  -->
<g id="edge11" class="edge">
<title>CoreModule&#45;&gt;HeaderNavComponent </title>
<path fill="none" stroke="#000000" stroke-dasharray="5,2" d="M2058.4423,-161.9421C2058.4423,-157.5055 2058.4423,-154 2058.4423,-154 2058.4423,-154 2809.4866,-154 2809.4866,-154 2809.4866,-154 2809.4866,-132.0511 2809.4866,-132.0511"/>
<polygon fill="#000000" stroke="#000000" points="2812.9867,-132.0511 2809.4866,-122.0511 2805.9867,-132.0512 2812.9867,-132.0511"/>
</g>
<!-- ProjectsModule -->
<g id="node5" class="node">
<title>ProjectsModule</title>
<polygon fill="#8dd3c7" stroke="#000000" points="1995.1486,-198 1992.1486,-202 1971.1486,-202 1968.1486,-198 1890.8514,-198 1890.8514,-162 1995.1486,-162 1995.1486,-198"/>
<text text-anchor="middle" x="1943" y="-175.8" font-family="Times,serif" font-size="14.00" fill="#000000">ProjectsModule</text>
</g>
<!-- ProjectsModule&#45;&gt;AppModule -->
<g id="edge4" class="edge">
<title>ProjectsModule&#45;&gt;AppModule</title>
<path fill="none" stroke="#000000" d="M1905.7521,-198.1061C1905.7521,-198.1061 1905.7521,-216.991 1905.7521,-216.991"/>
<polygon fill="#000000" stroke="#000000" points="1902.2522,-216.9909 1905.7521,-226.991 1909.2522,-216.991 1902.2522,-216.9909"/>
</g>
<!-- DatasetsModule -->
<g id="node6" class="node">
<title>DatasetsModule</title>
<polygon fill="#8dd3c7" stroke="#000000" points="1739.4706,-198 1736.4706,-202 1715.4706,-202 1712.4706,-198 1632.5294,-198 1632.5294,-162 1739.4706,-162 1739.4706,-198"/>
<text text-anchor="middle" x="1686" y="-175.8" font-family="Times,serif" font-size="14.00" fill="#000000">DatasetsModule</text>
</g>
<!-- DatasetsModule&#45;&gt;AppModule -->
<g id="edge5" class="edge">
<title>DatasetsModule&#45;&gt;AppModule</title>
<path fill="none" stroke="#000000" d="M1686,-198.0225C1686,-215.3734 1686,-239 1686,-239 1686,-239 1827.1219,-239 1827.1219,-239"/>
<polygon fill="#000000" stroke="#000000" points="1827.1219,-242.5001 1837.1219,-239 1827.1218,-235.5001 1827.1219,-242.5001"/>
</g>
<!-- HeatmapsModule -->
<g id="node7" class="node">
<title>HeatmapsModule</title>
<polygon fill="#8dd3c7" stroke="#000000" points="1872.527,-198 1869.527,-202 1848.527,-202 1845.527,-198 1757.473,-198 1757.473,-162 1872.527,-162 1872.527,-198"/>
<text text-anchor="middle" x="1815" y="-175.8" font-family="Times,serif" font-size="14.00" fill="#000000">HeatmapsModule</text>
</g>
<!-- HeatmapsModule&#45;&gt;AppModule -->
<g id="edge6" class="edge">
<title>HeatmapsModule&#45;&gt;AppModule</title>
<path fill="none" stroke="#000000" d="M1854.9674,-198.1061C1854.9674,-198.1061 1854.9674,-216.991 1854.9674,-216.991"/>
<polygon fill="#000000" stroke="#000000" points="1851.4675,-216.9909 1854.9674,-226.991 1858.4675,-216.991 1851.4675,-216.9909"/>
</g>
<!-- HeaderNavComponent -->
<g id="node9" class="node">
<title>HeaderNavComponent</title>
<polygon fill="#ffffb3" stroke="#000000" points="3267.5646,-122 3122.4354,-122 3122.4354,-86 3267.5646,-86 3267.5646,-122"/>
<text text-anchor="middle" x="3195" y="-99.8" font-family="Times,serif" font-size="14.00" fill="#000000">HeaderNavComponent</text>
</g>
<!-- HeaderNavComponent&#45;&gt;CoreModule -->
<g id="edge8" class="edge">
<title>HeaderNavComponent&#45;&gt;CoreModule</title>
<path fill="none" stroke="#000000" d="M3145.4765,-122.2819C3145.4765,-137.9478 3145.4765,-158 3145.4765,-158 3145.4765,-158 2091.9931,-158 2091.9931,-158 2091.9931,-158 2091.9931,-158.3832 2091.9931,-158.3832"/>
<polygon fill="#000000" stroke="#000000" points="2088.4934,-151.832 2091.9931,-161.8321 2095.4934,-151.8322 2088.4934,-151.832"/>
</g>
<!-- SharedModule -->
<g id="node10" class="node">
<title>SharedModule</title>
<polygon fill="#8dd3c7" stroke="#000000" points="3098.4231,-122 3095.4231,-126 3074.4231,-126 3071.4231,-122 2999.5769,-122 2999.5769,-86 3098.4231,-86 3098.4231,-122"/>
<text text-anchor="middle" x="3049" y="-99.8" font-family="Times,serif" font-size="14.00" fill="#000000">SharedModule</text>
</g>
<!-- SharedModule&#45;&gt;CoreModule -->
<g id="edge9" class="edge">
<title>SharedModule&#45;&gt;CoreModule</title>
<path fill="none" stroke="#000000" d="M3019.0121,-122.2396C3019.0121,-137.5706 3019.0121,-157 3019.0121,-157 3019.0121,-157 2083.6054,-157 2083.6054,-157 2083.6054,-157 2083.6054,-157.4878 2083.6054,-157.4878"/>
<polygon fill="#000000" stroke="#000000" points="2080.1056,-151.8776 2083.6054,-161.8777 2087.1056,-151.8778 2080.1056,-151.8776"/>
</g>
<!-- SharedModule&#45;&gt;ProjectsModule -->
<g id="edge28" class="edge">
<title>SharedModule&#45;&gt;ProjectsModule</title>
<path fill="none" stroke="#000000" d="M3014.2063,-122.037C3014.2063,-135.2913 3014.2063,-151 3014.2063,-151 3014.2063,-151 1982.243,-151 1982.243,-151 1982.243,-151 1982.243,-152.0799 1982.243,-152.0799"/>
<polygon fill="#000000" stroke="#000000" points="1978.7431,-151.7985 1982.243,-161.7985 1985.7431,-151.7986 1978.7431,-151.7985"/>
</g>
<!-- SharedModule&#45;&gt;DatasetsModule -->
<g id="edge17" class="edge">
<title>SharedModule&#45;&gt;DatasetsModule</title>
<path fill="none" stroke="#000000" d="M3004.5947,-122.1543C3004.5947,-123.2969 3004.5947,-124 3004.5947,-124 3004.5947,-124 1702.5785,-124 1702.5785,-124 1702.5785,-124 1702.5785,-151.973 1702.5785,-151.973"/>
<polygon fill="#000000" stroke="#000000" points="1699.0786,-151.973 1702.5785,-161.973 1706.0786,-151.973 1699.0786,-151.973"/>
</g>
<!-- SharedModule&#45;&gt;HeatmapsModule -->
<g id="edge22" class="edge">
<title>SharedModule&#45;&gt;HeatmapsModule</title>
<path fill="none" stroke="#000000" d="M3009.4005,-122.08C3009.4005,-123.8464 3009.4005,-125 3009.4005,-125 3009.4005,-125 1856.2227,-125 1856.2227,-125 1856.2227,-125 1856.2227,-151.9909 1856.2227,-151.9909"/>
<polygon fill="#000000" stroke="#000000" points="1852.7228,-151.9909 1856.2227,-161.9909 1859.7228,-151.991 1852.7228,-151.9909"/>
</g>
<!-- MaterialModule  -->
<g id="node31" class="node">
<title>MaterialModule </title>
<polygon fill="#fb8072" stroke="#000000" points="3038.4716,-198 2927.5284,-198 2927.5284,-162 3038.4716,-162 3038.4716,-198"/>
<text text-anchor="middle" x="2983" y="-175.8" font-family="Times,serif" font-size="14.00" fill="#000000">MaterialModule </text>
</g>
<!-- SharedModule&#45;&gt;MaterialModule  -->
<g id="edge34" class="edge">
<title>SharedModule&#45;&gt;MaterialModule </title>
<path fill="none" stroke="#000000" stroke-dasharray="5,2" d="M3033.4295,-122.0109C3033.4295,-122.0109 3033.4295,-151.855 3033.4295,-151.855"/>
<polygon fill="#000000" stroke="#000000" points="3029.9296,-151.8549 3033.4295,-161.855 3036.9296,-151.855 3029.9296,-151.8549"/>
</g>
<!-- FileUploadComponent  -->
<g id="node32" class="node">
<title>FileUploadComponent </title>
<polygon fill="#fb8072" stroke="#000000" points="2909.8227,-198 2762.1773,-198 2762.1773,-162 2909.8227,-162 2909.8227,-198"/>
<text text-anchor="middle" x="2836" y="-175.8" font-family="Times,serif" font-size="14.00" fill="#000000">FileUploadComponent </text>
</g>
<!-- SharedModule&#45;&gt;FileUploadComponent  -->
<g id="edge35" class="edge">
<title>SharedModule&#45;&gt;FileUploadComponent </title>
<path fill="none" stroke="#000000" stroke-dasharray="5,2" d="M3028.6237,-122.0352C3028.6237,-138.7344 3028.6237,-161 3028.6237,-161 3028.6237,-161 2856.8844,-161 2856.8844,-161 2856.8844,-161 2856.8844,-161.0816 2856.8844,-161.0816"/>
<polygon fill="#000000" stroke="#000000" points="2853.3858,-151.8159 2856.8844,-161.8164 2860.3858,-151.8169 2853.3858,-151.8159"/>
</g>
<!-- FileSizePipe  -->
<g id="node33" class="node">
<title>FileSizePipe </title>
<polygon fill="#fb8072" stroke="#000000" points="2744.269,-198 2653.731,-198 2653.731,-162 2744.269,-162 2744.269,-198"/>
<text text-anchor="middle" x="2699" y="-175.8" font-family="Times,serif" font-size="14.00" fill="#000000">FileSizePipe </text>
</g>
<!-- SharedModule&#45;&gt;FileSizePipe  -->
<g id="edge36" class="edge">
<title>SharedModule&#45;&gt;FileSizePipe </title>
<path fill="none" stroke="#000000" stroke-dasharray="5,2" d="M3023.8179,-122.027C3023.8179,-138.3976 3023.8179,-160 3023.8179,-160 3023.8179,-160 2738.0702,-160 2738.0702,-160 2738.0702,-160 2738.0702,-160.1846 2738.0702,-160.1846"/>
<polygon fill="#000000" stroke="#000000" points="2734.5708,-151.8455 2738.0702,-161.8457 2741.5708,-151.8459 2734.5708,-151.8455"/>
</g>
<!-- { &#160;} -->
<g id="node11" class="node">
<title>{ &#160;}</title>
<polygon fill="#8dd3c7" stroke="#000000" points="2982,-122 2979,-126 2958,-126 2955,-122 2928,-122 2928,-86 2982,-86 2982,-122"/>
<text text-anchor="middle" x="2955" y="-99.8" font-family="Times,serif" font-size="14.00" fill="#000000">{ &#160;}</text>
</g>
<!-- { &#160;}&#45;&gt;CoreModule -->
<g id="edge10" class="edge">
<title>{ &#160;}&#45;&gt;CoreModule</title>
<path fill="none" stroke="#000000" d="M2955,-122.1243C2955,-136.7832 2955,-155 2955,-155 2955,-155 2075.2177,-155 2075.2177,-155 2075.2177,-155 2075.2177,-155.6831 2075.2177,-155.6831"/>
<polygon fill="#000000" stroke="#000000" points="2071.7179,-151.8313 2075.2177,-161.8314 2078.7179,-151.8314 2071.7179,-151.8313"/>
</g>
<!-- CanDeactivateGuard -->
<g id="node13" class="node">
<title>CanDeactivateGuard</title>
<ellipse fill="#fdb462" stroke="#000000" cx="2640" cy="-104" rx="92.0123" ry="18"/>
<text text-anchor="middle" x="2640" y="-99.8" font-family="Times,serif" font-size="14.00" fill="#000000">CanDeactivateGuard</text>
</g>
<!-- CanDeactivateGuard&#45;&gt;CoreModule -->
<g id="edge12" class="edge">
<title>CanDeactivateGuard&#45;&gt;CoreModule</title>
<path fill="none" stroke="#000000" d="M2600.9298,-120.5189C2600.9298,-134.4036 2600.9298,-152 2600.9298,-152 2600.9298,-152 2066.83,-152 2066.83,-152 2066.83,-152 2066.83,-152.9793 2066.83,-152.9793"/>
<polygon fill="#000000" stroke="#000000" points="2063.3301,-151.793 2066.83,-161.793 2070.3301,-151.7931 2063.3301,-151.793"/>
</g>
<!-- ViewDatasetComponent -->
<g id="node14" class="node">
<title>ViewDatasetComponent</title>
<polygon fill="#ffffb3" stroke="#000000" points="731.6275,-122 578.3725,-122 578.3725,-86 731.6275,-86 731.6275,-122"/>
<text text-anchor="middle" x="655" y="-99.8" font-family="Times,serif" font-size="14.00" fill="#000000">ViewDatasetComponent</text>
</g>
<!-- ViewDatasetComponent&#45;&gt;DatasetsModule -->
<g id="edge13" class="edge">
<title>ViewDatasetComponent&#45;&gt;DatasetsModule</title>
<path fill="none" stroke="#000000" d="M655,-122.32C655,-130.7883 655,-139 655,-139 655,-139 1651.4616,-139 1651.4616,-139 1651.4616,-139 1651.4616,-151.8975 1651.4616,-151.8975"/>
<polygon fill="#000000" stroke="#000000" points="1647.9617,-151.8974 1651.4616,-161.8975 1654.9617,-151.8975 1647.9617,-151.8974"/>
</g>
<!-- DatasetDetailsComponent -->
<g id="node15" class="node">
<title>DatasetDetailsComponent</title>
<polygon fill="#ffffb3" stroke="#000000" points="560.4608,-122 397.5392,-122 397.5392,-86 560.4608,-86 560.4608,-122"/>
<text text-anchor="middle" x="479" y="-99.8" font-family="Times,serif" font-size="14.00" fill="#000000">DatasetDetailsComponent</text>
</g>
<!-- DatasetDetailsComponent&#45;&gt;DatasetsModule -->
<g id="edge14" class="edge">
<title>DatasetDetailsComponent&#45;&gt;DatasetsModule</title>
<path fill="none" stroke="#000000" d="M479,-122.4218C479,-131.2791 479,-140 479,-140 479,-140 1646.7249,-140 1646.7249,-140 1646.7249,-140 1646.7249,-151.8726 1646.7249,-151.8726"/>
<polygon fill="#000000" stroke="#000000" points="1643.225,-151.8725 1646.7249,-161.8726 1650.225,-151.8726 1643.225,-151.8725"/>
</g>
<!-- ConceptsViewComponent -->
<g id="node16" class="node">
<title>ConceptsViewComponent</title>
<polygon fill="#ffffb3" stroke="#000000" points="1079.752,-122 916.248,-122 916.248,-86 1079.752,-86 1079.752,-122"/>
<text text-anchor="middle" x="998" y="-99.8" font-family="Times,serif" font-size="14.00" fill="#000000">ConceptsViewComponent</text>
</g>
<!-- ConceptsViewComponent&#45;&gt;DatasetsModule -->
<g id="edge15" class="edge">
<title>ConceptsViewComponent&#45;&gt;DatasetsModule</title>
<path fill="none" stroke="#000000" d="M998,-122.2434C998,-129.4297 998,-136 998,-136 998,-136 1660.935,-136 1660.935,-136 1660.935,-136 1660.935,-151.8495 1660.935,-151.8495"/>
<polygon fill="#000000" stroke="#000000" points="1657.4351,-151.8494 1660.935,-161.8495 1664.4351,-151.8495 1657.4351,-151.8494"/>
</g>
<!-- FiltersViewComponent -->
<g id="node17" class="node">
<title>FiltersViewComponent</title>
<polygon fill="#ffffb3" stroke="#000000" points="897.9256,-122 750.0744,-122 750.0744,-86 897.9256,-86 897.9256,-122"/>
<text text-anchor="middle" x="824" y="-99.8" font-family="Times,serif" font-size="14.00" fill="#000000">FiltersViewComponent</text>
</g>
<!-- FiltersViewComponent&#45;&gt;DatasetsModule -->
<g id="edge16" class="edge">
<title>FiltersViewComponent&#45;&gt;DatasetsModule</title>
<path fill="none" stroke="#000000" d="M824,-122.0449C824,-129.749 824,-137 824,-137 824,-137 1656.1983,-137 1656.1983,-137 1656.1983,-137 1656.1983,-151.5146 1656.1983,-151.5146"/>
<polygon fill="#000000" stroke="#000000" points="1652.6984,-151.5145 1656.1983,-161.5146 1659.6984,-151.5146 1652.6984,-151.5145"/>
</g>
<!-- DatasetsRoutingModule -->
<g id="node18" class="node">
<title>DatasetsRoutingModule</title>
<polygon fill="#8dd3c7" stroke="#000000" points="374.0884,-122 371.0884,-126 350.0884,-126 347.0884,-122 221.9116,-122 221.9116,-86 374.0884,-86 374.0884,-122"/>
<text text-anchor="middle" x="298" y="-99.8" font-family="Times,serif" font-size="14.00" fill="#000000">DatasetsRoutingModule</text>
</g>
<!-- DatasetsRoutingModule&#45;&gt;DatasetsModule -->
<g id="edge18" class="edge">
<title>DatasetsRoutingModule&#45;&gt;DatasetsModule</title>
<path fill="none" stroke="#000000" d="M298,-122.1097C298,-131.897 298,-142 298,-142 298,-142 1641.9881,-142 1641.9881,-142 1641.9881,-142 1641.9881,-151.8903 1641.9881,-151.8903"/>
<polygon fill="#000000" stroke="#000000" points="1638.4882,-151.8903 1641.9881,-161.8903 1645.4882,-151.8904 1638.4882,-151.8903"/>
</g>
<!-- DatasetDataService -->
<g id="node19" class="node">
<title>DatasetDataService</title>
<ellipse fill="#fdb462" stroke="#000000" cx="111" cy="-104" rx="87.3499" ry="18"/>
<text text-anchor="middle" x="111" y="-99.8" font-family="Times,serif" font-size="14.00" fill="#000000">DatasetDataService</text>
</g>
<!-- DatasetDataService&#45;&gt;DatasetsModule -->
<g id="edge19" class="edge">
<title>DatasetDataService&#45;&gt;DatasetsModule</title>
<path fill="none" stroke="#000000" d="M111,-122.1299C111,-132.3145 111,-143 111,-143 111,-143 1637.2514,-143 1637.2514,-143 1637.2514,-143 1637.2514,-151.9336 1637.2514,-151.9336"/>
<polygon fill="#000000" stroke="#000000" points="1633.7515,-151.9335 1637.2514,-161.9336 1640.7515,-151.9336 1633.7515,-151.9335"/>
</g>
<!-- CollectionComponent -->
<g id="node20" class="node">
<title>CollectionComponent</title>
<polygon fill="#ffffb3" stroke="#000000" points="1625.661,-122 1486.339,-122 1486.339,-86 1625.661,-86 1625.661,-122"/>
<text text-anchor="middle" x="1556" y="-99.8" font-family="Times,serif" font-size="14.00" fill="#000000">CollectionComponent</text>
</g>
<!-- CollectionComponent&#45;&gt;ProjectsModule -->
<g id="edge24" class="edge">
<title>CollectionComponent&#45;&gt;ProjectsModule</title>
<path fill="none" stroke="#000000" d="M1622.0159,-122.0579C1622.0159,-126.4945 1622.0159,-130 1622.0159,-130 1622.0159,-130 1903.757,-130 1903.757,-130 1903.757,-130 1903.757,-151.9489 1903.757,-151.9489"/>
<polygon fill="#000000" stroke="#000000" points="1900.2571,-151.9488 1903.757,-161.9489 1907.2571,-151.9489 1900.2571,-151.9488"/>
</g>
<!-- CollectionComponent&#45;&gt;HeatmapsModule -->
<g id="edge20" class="edge">
<title>CollectionComponent&#45;&gt;HeatmapsModule</title>
<path fill="none" stroke="#000000" d="M1618.2015,-122.1592C1618.2015,-127.0433 1618.2015,-131 1618.2015,-131 1618.2015,-131 1809.4918,-131 1809.4918,-131 1809.4918,-131 1809.4918,-151.7542 1809.4918,-151.7542"/>
<polygon fill="#000000" stroke="#000000" points="1805.9919,-151.7542 1809.4918,-161.7542 1812.9919,-151.7542 1805.9919,-151.7542"/>
</g>
<!-- HeatmapsPageComponent -->
<g id="node21" class="node">
<title>HeatmapsPageComponent</title>
<polygon fill="#ffffb3" stroke="#000000" points="1468.0211,-122 1303.9789,-122 1303.9789,-86 1468.0211,-86 1468.0211,-122"/>
<text text-anchor="middle" x="1386" y="-99.8" font-family="Times,serif" font-size="14.00" fill="#000000">HeatmapsPageComponent</text>
</g>
<!-- HeatmapsPageComponent&#45;&gt;HeatmapsModule -->
<g id="edge21" class="edge">
<title>HeatmapsPageComponent&#45;&gt;HeatmapsModule</title>
<path fill="none" stroke="#000000" d="M1386,-122.2015C1386,-128.028 1386,-133 1386,-133 1386,-133 1792.0735,-133 1792.0735,-133 1792.0735,-133 1792.0735,-151.963 1792.0735,-151.963"/>
<polygon fill="#000000" stroke="#000000" points="1788.5736,-151.963 1792.0735,-161.963 1795.5736,-151.963 1788.5736,-151.963"/>
</g>
<!-- HeatmapsRoutingModule -->
<g id="node22" class="node">
<title>HeatmapsRoutingModule</title>
<polygon fill="#8dd3c7" stroke="#000000" points="1280.1442,-122 1277.1442,-126 1256.1442,-126 1253.1442,-122 1119.8558,-122 1119.8558,-86 1280.1442,-86 1280.1442,-122"/>
<text text-anchor="middle" x="1200" y="-99.8" font-family="Times,serif" font-size="14.00" fill="#000000">HeatmapsRoutingModule</text>
</g>
<!-- HeatmapsRoutingModule&#45;&gt;HeatmapsModule -->
<g id="edge23" class="edge">
<title>HeatmapsRoutingModule&#45;&gt;HeatmapsModule</title>
<path fill="none" stroke="#000000" d="M1200,-122.1432C1200,-128.4611 1200,-134 1200,-134 1200,-134 1774.6553,-134 1774.6553,-134 1774.6553,-134 1774.6553,-151.8196 1774.6553,-151.8196"/>
<polygon fill="#000000" stroke="#000000" points="1771.1554,-151.8195 1774.6553,-161.8196 1778.1554,-151.8196 1771.1554,-151.8195"/>
</g>
<!-- EditComponent -->
<g id="node23" class="node">
<title>EditComponent</title>
<polygon fill="#ffffb3" stroke="#000000" points="2146.1667,-122 2041.8333,-122 2041.8333,-86 2146.1667,-86 2146.1667,-122"/>
<text text-anchor="middle" x="2094" y="-99.8" font-family="Times,serif" font-size="14.00" fill="#000000">EditComponent</text>
</g>
<!-- EditComponent&#45;&gt;ProjectsModule -->
<g id="edge25" class="edge">
<title>EditComponent&#45;&gt;ProjectsModule</title>
<path fill="none" stroke="#000000" d="M2050.0546,-122.0555C2050.0546,-133.439 2050.0546,-146 2050.0546,-146 2050.0546,-146 1943,-146 1943,-146 1943,-146 1943,-151.8056 1943,-151.8056"/>
<polygon fill="#000000" stroke="#000000" points="1939.5001,-151.8055 1943,-161.8056 1946.5001,-151.8056 1939.5001,-151.8055"/>
</g>
<!-- ProjectListComponent -->
<g id="node24" class="node">
<title>ProjectListComponent</title>
<polygon fill="#ffffb3" stroke="#000000" points="2508.2646,-122 2365.7354,-122 2365.7354,-86 2508.2646,-86 2508.2646,-122"/>
<text text-anchor="middle" x="2437" y="-99.8" font-family="Times,serif" font-size="14.00" fill="#000000">ProjectListComponent</text>
</g>
<!-- ProjectListComponent&#45;&gt;ProjectsModule -->
<g id="edge26" class="edge">
<title>ProjectListComponent&#45;&gt;ProjectsModule</title>
<path fill="none" stroke="#000000" d="M2437,-122.0439C2437,-134.5633 2437,-149 2437,-149 2437,-149 1969.162,-149 1969.162,-149 1969.162,-149 1969.162,-151.9672 1969.162,-151.9672"/>
<polygon fill="#000000" stroke="#000000" points="1965.6621,-151.9671 1969.162,-161.9672 1972.6621,-151.9672 1965.6621,-151.9671"/>
</g>
<!-- EditProjectDetailsComponent -->
<g id="node25" class="node">
<title>EditProjectDetailsComponent</title>
<polygon fill="#ffffb3" stroke="#000000" points="2347.972,-122 2164.028,-122 2164.028,-86 2347.972,-86 2347.972,-122"/>
<text text-anchor="middle" x="2256" y="-99.8" font-family="Times,serif" font-size="14.00" fill="#000000">EditProjectDetailsComponent</text>
</g>
<!-- EditProjectDetailsComponent&#45;&gt;ProjectsModule -->
<g id="edge27" class="edge">
<title>EditProjectDetailsComponent&#45;&gt;ProjectsModule</title>
<path fill="none" stroke="#000000" d="M2196.8668,-122.1505C2196.8668,-134.2708 2196.8668,-148 2196.8668,-148 2196.8668,-148 1956.081,-148 1956.081,-148 1956.081,-148 1956.081,-151.7566 1956.081,-151.7566"/>
<polygon fill="#000000" stroke="#000000" points="1952.5811,-151.7566 1956.081,-161.7566 1959.5811,-151.7566 1952.5811,-151.7566"/>
</g>
<!-- ProjectsRoutingModule -->
<g id="node26" class="node">
<title>ProjectsRoutingModule</title>
<polygon fill="#8dd3c7" stroke="#000000" points="2017.766,-122 2014.766,-126 1993.766,-126 1990.766,-122 1868.234,-122 1868.234,-86 2017.766,-86 2017.766,-122"/>
<text text-anchor="middle" x="1943" y="-99.8" font-family="Times,serif" font-size="14.00" fill="#000000">ProjectsRoutingModule</text>
</g>
<!-- ProjectsRoutingModule&#45;&gt;ProjectsModule -->
<g id="edge29" class="edge">
<title>ProjectsRoutingModule&#45;&gt;ProjectsModule</title>
<path fill="none" stroke="#000000" d="M1929.919,-122.0109C1929.919,-122.0109 1929.919,-151.855 1929.919,-151.855"/>
<polygon fill="#000000" stroke="#000000" points="1926.4191,-151.8549 1929.919,-161.855 1933.4191,-151.855 1926.4191,-151.8549"/>
</g>
<!-- ProjectsDataService -->
<g id="node27" class="node">
<title>ProjectsDataService</title>
<ellipse fill="#fdb462" stroke="#000000" cx="1755" cy="-104" rx="89.1568" ry="18"/>
<text text-anchor="middle" x="1755" y="-99.8" font-family="Times,serif" font-size="14.00" fill="#000000">ProjectsDataService</text>
</g>
<!-- ProjectsDataService&#45;&gt;ProjectsModule -->
<g id="edge30" class="edge">
<title>ProjectsDataService&#45;&gt;ProjectsModule</title>
<path fill="none" stroke="#000000" d="M1826.91,-114.8765C1826.91,-121.2266 1826.91,-128 1826.91,-128 1826.91,-128 1916.838,-128 1916.838,-128 1916.838,-128 1916.838,-151.8129 1916.838,-151.8129"/>
<polygon fill="#000000" stroke="#000000" points="1913.3381,-151.8129 1916.838,-161.8129 1920.3381,-151.813 1913.3381,-151.8129"/>
</g>
<!-- FileUploadComponent -->
<g id="node28" class="node">
<title>FileUploadComponent</title>
<polygon fill="#ffffb3" stroke="#000000" points="3441.323,-198 3296.677,-198 3296.677,-162 3441.323,-162 3441.323,-198"/>
<text text-anchor="middle" x="3369" y="-175.8" font-family="Times,serif" font-size="14.00" fill="#000000">FileUploadComponent</text>
</g>
<!-- FileUploadComponent&#45;&gt;SharedModule -->
<g id="edge31" class="edge">
<title>FileUploadComponent&#45;&gt;SharedModule</title>
<path fill="none" stroke="#000000" d="M3369,-161.7604C3369,-146.4294 3369,-127 3369,-127 3369,-127 3089.037,-127 3089.037,-127 3089.037,-127 3089.037,-126.5122 3089.037,-126.5122"/>
<polygon fill="#000000" stroke="#000000" points="3092.5372,-132.1222 3089.037,-122.1223 3085.5372,-132.1224 3092.5372,-132.1222"/>
</g>
<!-- FileSizePipe -->
<g id="node29" class="node">
<title>FileSizePipe</title>
<polygon fill="#ffffb3" stroke="#000000" points="3278.2689,-198 3191.7311,-198 3191.7311,-162 3278.2689,-162 3278.2689,-198"/>
<text text-anchor="middle" x="3235" y="-175.8" font-family="Times,serif" font-size="14.00" fill="#000000">FileSizePipe</text>
</g>
<!-- FileSizePipe&#45;&gt;SharedModule -->
<g id="edge32" class="edge">
<title>FileSizePipe&#45;&gt;SharedModule</title>
<path fill="none" stroke="#000000" d="M3229.574,-161.68C3229.574,-153.2117 3229.574,-145 3229.574,-145 3229.574,-145 3079.8629,-145 3079.8629,-145 3079.8629,-145 3079.8629,-132.1025 3079.8629,-132.1025"/>
<polygon fill="#000000" stroke="#000000" points="3083.363,-132.1025 3079.8629,-122.1025 3076.363,-132.1026 3083.363,-132.1025"/>
</g>
<!-- MaterialModule -->
<g id="node30" class="node">
<title>MaterialModule</title>
<polygon fill="#8dd3c7" stroke="#000000" points="3168.4706,-198 3165.4706,-202 3144.4706,-202 3141.4706,-198 3061.5294,-198 3061.5294,-162 3168.4706,-162 3168.4706,-198"/>
<text text-anchor="middle" x="3115" y="-175.8" font-family="Times,serif" font-size="14.00" fill="#000000">MaterialModule</text>
</g>
<!-- MaterialModule&#45;&gt;SharedModule -->
<g id="edge33" class="edge">
<title>MaterialModule&#45;&gt;SharedModule</title>
<path fill="none" stroke="#000000" d="M3070.6888,-161.9891C3070.6888,-161.9891 3070.6888,-132.145 3070.6888,-132.145"/>
<polygon fill="#000000" stroke="#000000" points="3074.1889,-132.145 3070.6888,-122.145 3067.1889,-132.1451 3074.1889,-132.145"/>
</g>
</g>
</svg>
